<svg width="47" height="47" viewBox="0 0 47 47" fill="none" xmlns="http://www.w3.org/2000/svg">
<path d="M3.91675 23.5002C3.91675 16.1153 3.91675 12.4219 6.78375 10.1287C9.65466 7.8335 14.2685 7.8335 23.5001 7.8335C32.7317 7.8335 37.3475 7.8335 40.2145 10.1287C43.0834 12.4219 43.0834 16.1153 43.0834 23.5002C43.0834 30.885 43.0834 34.5785 40.2145 36.8717C37.3494 39.1668 32.7317 39.1668 23.5001 39.1668C14.2685 39.1668 9.65271 39.1668 6.78375 36.8717C3.91675 34.5785 3.91675 30.885 3.91675 23.5002Z" stroke="#423B4E" stroke-width="2.9375" stroke-linecap="round" stroke-linejoin="round"/>
<path d="M40.4728 10.3989L31.02 19.1918C27.4245 22.1881 25.6248 23.6862 23.498 23.6862C21.3713 23.6862 19.5735 22.1881 15.9761 19.1899L6.5271 10.3989" stroke="#423B4E" stroke-width="2.9375" stroke-linecap="round" stroke-linejoin="round"/>
</svg>
