<svg width="40" height="41" viewBox="0 0 40 41" fill="none" xmlns="http://www.w3.org/2000/svg">
<g clip-path="url(#clip0_322_947)">
<path d="M19.5699 21.622C20.7272 21.622 21.8731 21.394 22.9423 20.9512C24.0115 20.5083 24.983 19.8592 25.8013 19.0408C26.6196 18.2225 27.2687 17.251 27.7116 16.1819C28.1545 15.1127 28.3824 13.9667 28.3824 12.8095C28.3824 11.6522 28.1545 10.5062 27.7116 9.43707C27.2687 8.36788 26.6196 7.3964 25.8013 6.57808C24.983 5.75977 24.0115 5.11064 22.9423 4.66777C21.8731 4.22491 20.7272 3.99696 19.5699 3.99696C17.2327 3.99696 14.9912 4.92542 13.3385 6.57808C11.6859 8.23075 10.7574 10.4722 10.7574 12.8095C10.7574 15.1467 11.6859 17.3882 13.3385 19.0408C14.9912 20.6935 17.2327 21.622 19.5699 21.622ZM19.5836 0.916505C22.1631 0.915664 24.6713 1.7637 26.721 3.32975C28.7707 4.89581 30.2482 7.09286 30.9253 9.58191C31.6025 12.071 31.4418 14.7137 30.468 17.1023C29.4941 19.491 27.7613 21.4928 25.5369 22.7989C32.7593 24.9727 38.1839 31.0592 39.1572 38.6183C39.2492 39.337 38.7146 39.9892 37.9626 40.0773C37.2125 40.1654 36.5271 39.6563 36.4351 38.9375C35.3776 30.7321 28.2708 24.5536 19.6521 24.5536C10.9865 24.5536 3.78769 30.7439 2.73215 38.9375C2.6401 39.6563 1.95469 40.1654 1.20465 40.0773C0.452646 39.9892 -0.0819786 39.337 0.0100631 38.6183C0.981396 31.0905 6.43535 25.0118 13.6694 22.8185C11.4383 21.5183 9.69759 19.5193 8.7165 17.1306C7.7354 14.7418 7.56856 12.0964 8.24176 9.60338C8.91496 7.11031 10.3907 4.90845 12.4408 3.33824C14.4909 1.76802 17.0012 0.916914 19.5836 0.916505Z" fill="#423B4E"/>
</g>
<defs>
<clipPath id="clip0_322_947">
<rect width="39.1667" height="39.1667" fill="white" transform="translate(0 0.916504)"/>
</clipPath>
</defs>
</svg>
