<svg width="37" height="37" viewBox="0 0 37 37" fill="none" xmlns="http://www.w3.org/2000/svg">
<path fill-rule="evenodd" clip-rule="evenodd" d="M22.1771 23.8127C20.0989 25.4733 17.4637 26.275 14.8128 26.0533C12.1619 25.8316 9.69656 24.6033 7.92305 22.6206C6.14953 20.6379 5.20251 18.0514 5.27649 15.3923C5.35047 12.7332 6.43983 10.2033 8.32084 8.3223C10.2018 6.4413 12.7317 5.35193 15.3908 5.27796C18.0499 5.20398 20.6364 6.151 22.6191 7.92451C24.6018 9.69802 25.8301 12.1634 26.0518 14.8143C26.2735 17.4652 25.4718 20.1003 23.8113 22.1786L31.7601 30.1259C31.8737 30.2317 31.9648 30.3594 32.028 30.5012C32.0912 30.643 32.1252 30.7961 32.1279 30.9514C32.1307 31.1066 32.1021 31.2608 32.0439 31.4048C31.9858 31.5488 31.8992 31.6796 31.7894 31.7894C31.6796 31.8992 31.5489 31.9857 31.4049 32.0439C31.2609 32.102 31.1067 32.1306 30.9515 32.1278C30.7962 32.1251 30.6431 32.0911 30.5013 32.0279C30.3594 31.9647 30.2318 31.8736 30.1259 31.76L22.1771 23.8127ZM9.95939 21.4046C8.82787 20.273 8.05721 18.8313 7.7448 17.2618C7.4324 15.6923 7.59227 14.0654 8.20422 12.5868C8.81616 11.1081 9.85272 9.84403 11.1829 8.9543C12.513 8.06457 14.0771 7.58912 15.6774 7.58805C17.2777 7.58697 18.8424 8.06031 20.1737 8.94825C21.5051 9.83619 22.5433 11.0989 23.1573 12.5767C23.7712 14.0546 23.9333 15.6812 23.623 17.2511C23.3127 18.8211 22.544 20.2638 21.414 21.3969L21.4063 21.4046L21.3986 21.4108C19.8802 22.9257 17.8225 23.7759 15.6777 23.7748C13.5328 23.7736 11.4762 22.9212 9.95939 21.4046Z" fill="#423B4E"/>
</svg>
